<svg id="Capa_1" data-name="Capa 1" xmlns="http://www.w3.org/2000/svg" viewBox="0 0 35.06 45"><defs><style>.cls-1{fill:#5d3bef;}</style></defs><title>corg academlo</title><path class="cls-1" d="M17.53,44.25A0.52,0.52,0,0,1,17,43.9s-0.94-2.37-5.44-3.71c-2.33-.69-5.23-1.56-7.45-4-2.48-2.75-3.61-7-3.47-12.88a0.52,0.52,0,0,1,.49-0.51c0.75,0,2.3-.37,2.3-1.09a0.3,0.3,0,0,1,0-.14,0.32,0.32,0,0,0-.09-0.23c-0.13-.16-0.61-0.53-2.22-0.55A0.52,0.52,0,0,1,.73,20a29.44,29.44,0,0,0,1.73-4.86,21.74,21.74,0,0,0,.49-10.1,0.52,0.52,0,0,1,.54-0.64,7.22,7.22,0,0,0,2.36-.33A5.75,5.75,0,0,0,9.47,1,0.52,0.52,0,0,1,10.17.81a17.51,17.51,0,0,0,7.36,1.54A17.42,17.42,0,0,0,24.89.81,0.52,0.52,0,0,1,25.6,1c1.77,3.66,5.94,3.4,6,3.4a0.52,0.52,0,0,1,.54.64c-1.63,7,2.18,14.88,2.22,15a0.52,0.52,0,0,1-.46.75c-1.61,0-2.09.39-2.22,0.55a0.32,0.32,0,0,0-.09.23,0.3,0.3,0,0,1,0,.14c0,0.72,1.58,1,2.3,1.09a0.52,0.52,0,0,1,.49.51c0.14,5.92-1,10.14-3.47,12.88-2.22,2.46-5.12,3.33-7.45,4C19,41.52,18,43.85,18,43.91a0.52,0.52,0,0,1-.48.34h0ZM1.71,23.77c-0.07,5.4,1,9.24,3.21,11.71,2,2.25,4.77,3.07,7,3.72,3.35,1,4.93,2.55,5.63,3.51,0.69-1,2.27-2.51,5.63-3.51,2.21-.66,5-1.48,7-3.72,2.23-2.47,3.28-6.3,3.21-11.71a6.67,6.67,0,0,1-1-.23c-1.41-.44-1.74-1.2-1.76-1.78a1.33,1.33,0,0,1,.25-1,3.08,3.08,0,0,1,2.28-1,32.18,32.18,0,0,1-1.48-4.32,23.38,23.38,0,0,1-.63-10,8.59,8.59,0,0,1-2-.36A6.85,6.85,0,0,1,24.9,1.95a19,19,0,0,1-7.37,1.44,19,19,0,0,1-7.37-1.44A6.85,6.85,0,0,1,6.11,5.12a8.59,8.59,0,0,1-2,.36,23.38,23.38,0,0,1-.63,10A32.18,32.18,0,0,1,2,19.78a3.08,3.08,0,0,1,2.28,1,1.33,1.33,0,0,1,.25,1c0,0.58-.35,1.34-1.76,1.78A6.67,6.67,0,0,1,1.71,23.77Z"/><path class="cls-1" d="M19.75,14.82V30.71a8.06,8.06,0,0,1-1.11.23V15.68l-0.56-.07V31l-0.56,0L17,31V15.62l-0.56.06V30.94a8.07,8.07,0,0,1-1.11-.23V14.82a8.07,8.07,0,0,1,1.11-.23L17,14.54l0.56,0,0.56,0,0.56,0.06A8.06,8.06,0,0,1,19.75,14.82Z"/><path class="cls-1" d="M22,15.82q-0.27-.17-0.56-0.33A8,8,0,0,0,20.31,15V30.53A8,8,0,0,0,21.42,30V25.25A11.06,11.06,0,0,0,23.09,24V16.67A8.21,8.21,0,0,0,22,15.82Zm0,7.81a5.16,5.16,0,0,1-.56.36V16.74q0.29,0.19.56,0.4v6.49Z"/><path class="cls-1" d="M14.75,29.38v1.16A8,8,0,0,1,13.64,30c-0.19-.1-0.38-0.21-0.56-0.33A8.21,8.21,0,0,1,12,28.86V16.67a8.21,8.21,0,0,1,1.11-.85V28.39c0.18,0.14.36,0.28,0.56,0.4A7.18,7.18,0,0,0,14.75,29.38Z"/><path class="cls-1" d="M14.75,15V28.36a6.2,6.2,0,0,1-1.11-.71V15.49A8,8,0,0,1,14.75,15Z"/><path class="cls-1" d="M10.31,18.79a8.24,8.24,0,0,0,1.11,9.52V17.23A8.23,8.23,0,0,0,10.31,18.79ZM10.61,25a3.87,3.87,0,0,1-.27-0.63,5.41,5.41,0,0,1,0-3.23,3.87,3.87,0,0,1,.27-0.63V25Z"/><path class="cls-1" d="M24.76,18.79a8.22,8.22,0,0,0-1.11-1.56V28.3A8.25,8.25,0,0,0,24.76,18.79Zm0,5.59a3.87,3.87,0,0,1-.27.63v-4.5a3.87,3.87,0,0,1,.27.63A5.41,5.41,0,0,1,24.72,24.38Z"/><path class="cls-1" d="M17.53,4.17A20.68,20.68,0,0,1,15.31,4V14a9.14,9.14,0,0,1,4.45,0V4A20.66,20.66,0,0,1,17.53,4.17Zm0.93,4.4-1.59,2.37,0,0a0,0,0,0,1,0,0l0.41-2.16H16.62a0,0,0,0,1,0-.05l0.46-1.56a0,0,0,0,1,0,0h1.35a0,0,0,0,1,0,.05L17.92,8.51h0.53A0,0,0,0,1,18.46,8.57Z"/><path class="cls-1" d="M24.59,2.91L24,3.12V16.49A9,9,0,0,1,24,29v9.08a19.16,19.16,0,0,0,2.48-.95,10.45,10.45,0,0,0,2-1.2V5.78A7.53,7.53,0,0,1,24.59,2.91Z"/><path class="cls-1" d="M8.5,22.77A9,9,0,0,1,11,16.49V3.12l-0.57-.2A7.53,7.53,0,0,1,6.6,5.78V36a10.47,10.47,0,0,0,2,1.2,19.13,19.13,0,0,0,2.48.95V29A9,9,0,0,1,8.5,22.77Z"/><path class="cls-1" d="M17.53,31.79a9.09,9.09,0,0,1-2.22-.27v8.26a10,10,0,0,1,2.07,1.55l0.15,0.15a9.77,9.77,0,0,1,2.23-1.7V31.52A9.09,9.09,0,0,1,17.53,31.79Z"/></svg>