<svg id="Capa_1" data-name="Capa 1" xmlns="http://www.w3.org/2000/svg" viewBox="0 0 45 40"><defs><style>.cls-1{fill:#8e7bef;}</style></defs><title>ecommerce academlo icon</title><path class="cls-1" d="M42.52,25.52h-40a0.69,0.69,0,0,1-.69-0.69V3.43A2.77,2.77,0,0,1,4.55.67H40.45a2.76,2.76,0,0,1,2.76,2.76v21.4A0.69,0.69,0,0,1,42.52,25.52ZM3.17,24.14H41.83V3.43a1.38,1.38,0,0,0-1.38-1.38H4.55A1.38,1.38,0,0,0,3.17,3.43V24.14Z"/><path class="cls-1" d="M40.45,31H4.55a2.77,2.77,0,0,1-2.76-2.76V24.83a0.69,0.69,0,0,1,.69-0.69h40a0.69,0.69,0,0,1,.69.69v3.45A2.77,2.77,0,0,1,40.45,31h0ZM3.17,25.52v2.76a1.38,1.38,0,0,0,1.38,1.38H40.45a1.38,1.38,0,0,0,1.38-1.38V25.52H3.17Z"/><path class="cls-1" d="M24.57,28.28H20.43a0.69,0.69,0,0,1,0-1.38h4.14A0.69,0.69,0,0,1,24.57,28.28Z"/><path class="cls-1" d="M39.76,25.52H5.24a0.69,0.69,0,0,1-.69-0.69V4.12a0.69,0.69,0,0,1,.69-0.69H39.76a0.69,0.69,0,0,1,.69.69V24.83A0.69,0.69,0,0,1,39.76,25.52ZM5.93,24.14H39.07V4.81H5.93V24.14Z"/><path class="cls-1" d="M31.47,39.33H13.53a2.07,2.07,0,0,1,0-4.14H31.47A2.07,2.07,0,0,1,31.47,39.33ZM13.53,36.57a0.69,0.69,0,0,0,0,1.38H31.47a0.69,0.69,0,0,0,0-1.38H13.53Z"/><path class="cls-1" d="M30.09,36.57H14.91a0.69,0.69,0,1,1,0-1.38c2.29,0,3.45-1.63,3.45-4.83A0.69,0.69,0,0,1,19,29.66H26a0.69,0.69,0,0,1,.69.69c0,3.21,1.16,4.83,3.45,4.83A0.69,0.69,0,1,1,30.09,36.57ZM18.27,35.19h8.46A6.61,6.61,0,0,1,25.28,31H19.72a6.61,6.61,0,0,1-1.45,4.14h0Z"/><path class="cls-1" d="M26.64,21.38H18.36a0.69,0.69,0,0,1,0-1.38h8.28A0.69,0.69,0,1,1,26.64,21.38Z"/><path class="cls-1" d="M18.36,22.76H15.6a0.69,0.69,0,0,1-.69-0.69V19.31a0.69,0.69,0,0,1,.69-0.69h2.76a0.69,0.69,0,0,1,.69.69v2.76A0.69,0.69,0,0,1,18.36,22.76Zm-2.07-1.38h1.38V20H16.29v1.38Z"/><path class="cls-1" d="M29.4,22.76H26.64A0.69,0.69,0,0,1,26,22.07V19.31a0.69,0.69,0,0,1,.69-0.69H29.4a0.69,0.69,0,0,1,.69.69v2.76A0.69,0.69,0,0,1,29.4,22.76Zm-2.07-1.38h1.38V20H27.33v1.38Z"/><path class="cls-1" d="M15.6,20a2.07,2.07,0,0,1,0-4.14,0.69,0.69,0,0,1,0,1.38,0.69,0.69,0,0,0,0,1.38A0.69,0.69,0,0,1,15.6,20Z"/><path class="cls-1" d="M29.4,17.24H15.6a0.69,0.69,0,0,1-.67-0.52L12.86,8.43a0.69,0.69,0,0,1,.67-0.86H31.47a0.69,0.69,0,0,1,.67.86l-2.07,8.28a0.69,0.69,0,0,1-.67.52h0ZM16.14,15.86H28.86L30.59,9H14.41Z"/><path class="cls-1" d="M13.53,9a0.69,0.69,0,0,1-.62-0.38L12.22,7.19a0.69,0.69,0,1,1,1.23-.62L14.14,8a0.69,0.69,0,0,1-.62,1h0Z"/><path class="cls-1" d="M12.84,7.57H10.77a0.69,0.69,0,0,1,0-1.38h2.07A0.69,0.69,0,0,1,12.84,7.57Z"/><path class="cls-1" d="M30.09,14.48H14.91a0.69,0.69,0,0,1,0-1.38H30.09A0.69,0.69,0,1,1,30.09,14.48Z"/><path class="cls-1" d="M30.78,11.72H14.22a0.69,0.69,0,0,1,0-1.38H30.78A0.69,0.69,0,1,1,30.78,11.72Z"/><path class="cls-1" d="M22.5,17.24a0.69,0.69,0,0,1-.69-0.69V8.27a0.69,0.69,0,1,1,1.38,0v8.28A0.69,0.69,0,0,1,22.5,17.24Z"/><path class="cls-1" d="M19,17.24a0.69,0.69,0,0,1-.68-0.58L17,8.38a0.69,0.69,0,0,1,1.36-.23l1.38,8.28a0.69,0.69,0,0,1-.57.79H19Z"/><path class="cls-1" d="M26,17.24H25.84a0.69,0.69,0,0,1-.57-0.79l1.38-8.28A0.69,0.69,0,0,1,28,8.38l-1.38,8.28a0.69,0.69,0,0,1-.68.58h0Z"/></svg>