<svg id="Capa_1" data-name="Capa 1" xmlns="http://www.w3.org/2000/svg" viewBox="0 0 296.95 276.47"><defs><style>.cls-1{fill:#edebfd;}</style></defs><title>lineas-portafolio-chico</title><rect class="cls-1" x="-0.99" y="84.41" width="124.77" height="37.44" rx="18.51" ry="18.51" transform="translate(-50.42 59.5) rotate(-37.92)"/><path class="cls-1" d="M147.46,188.44L50.79,264.57a18.51,18.51,0,0,1-26-3.23L24.56,261a18.51,18.51,0,0,1,3.23-26l96.66-76.13a18.51,18.51,0,0,1,26,3.23l0.26,0.33A18.51,18.51,0,0,1,147.46,188.44Z"/><path class="cls-1" d="M284.14,81.68l-96.66,76.13a18.51,18.51,0,0,1-26-3.23l-0.26-.33a18.51,18.51,0,0,1,3.23-26l96.66-76.13a18.51,18.51,0,0,1,26,3.23l0.26,0.33A18.51,18.51,0,0,1,284.14,81.68Z"/><path class="cls-1" d="M225.9,62.52L35.82,210a18.51,18.51,0,0,1-26-3.23l-0.26-.33a18.51,18.51,0,0,1,3.23-26L202.9,33a18.51,18.51,0,0,1,26,3.23l0.26,0.33A18.51,18.51,0,0,1,225.9,62.52Z"/><path class="cls-1" d="M162,47.64L144.63,62a18.51,18.51,0,0,1-26-3.23l-0.26-.33a18.51,18.51,0,0,1,3.23-26L139,18.11a18.51,18.51,0,0,1,26,3.23l0.26,0.33A18.51,18.51,0,0,1,162,47.64Z"/></svg>