<svg id="Capa_1" data-name="Capa 1" xmlns="http://www.w3.org/2000/svg" viewBox="0 0 471.94 421.98"><defs><style>.cls-1{fill:#edebfd;}</style></defs><title>lineas-portafolio</title><rect class="cls-1" x="0.38" y="121.26" width="196.66" height="59.01" rx="29.18" ry="29.18" transform="translate(-71.81 92.49) rotate(-37.92)"/><path class="cls-1" d="M234.36,285.24L82,405.23a29.18,29.18,0,0,1-40.95-5.09l-0.4-.52a29.18,29.18,0,0,1,5.09-40.95l152.36-120A29.18,29.18,0,0,1,239,243.77l0.4,0.52A29.18,29.18,0,0,1,234.36,285.24Z"/><path class="cls-1" d="M449.81,117L297.45,237a29.18,29.18,0,0,1-40.95-5.09l-0.4-.52a29.18,29.18,0,0,1,5.09-40.95l152.36-120a29.18,29.18,0,0,1,40.95,5.09L454.9,76A29.18,29.18,0,0,1,449.81,117Z"/><path class="cls-1" d="M358,86.75L58.4,319.2a29.18,29.18,0,0,1-40.95-5.09l-0.4-.52a29.18,29.18,0,0,1,5.09-40.95L321.75,40.2a29.18,29.18,0,0,1,40.95,5.09l0.4,0.52A29.18,29.18,0,0,1,358,86.75Z"/><path class="cls-1" d="M257.32,63.3L229.91,86A29.18,29.18,0,0,1,189,80.87l-0.4-.52a29.18,29.18,0,0,1,5.09-40.95l27.41-22.65A29.18,29.18,0,0,1,262,21.83l0.4,0.52A29.18,29.18,0,0,1,257.32,63.3Z"/></svg>