<svg id="Capa_1" data-name="Capa 1" xmlns="http://www.w3.org/2000/svg" viewBox="0 0 45 40"><defs><style>.cls-1{fill:#5d3bef;}</style></defs><title>mercurio academlo</title><path class="cls-1" d="M17.72,29.34H16.32V13l-6.8,11.3H9.28L2.48,13V29.34H1.09V10.94H2.82L9.39,21.83,16,10.94h1.76v18.4Z"/><path class="cls-1" d="M34.42,10.66a9.49,9.49,0,1,0,9.49,9.49A9.44,9.44,0,0,0,34.42,10.66Zm0,17.63a8.15,8.15,0,1,1,8.1-8.15A8.05,8.05,0,0,1,34.42,28.29Z"/><path class="cls-1" d="M43.91,1.17H42.52a8.09,8.09,0,1,1-16.19,0h-1.4A9.49,9.49,0,0,0,43.91,1.17Z"/><polygon class="cls-1" points="33.73 33.53 29.83 33.53 29.83 34.93 33.73 34.93 33.73 38.83 35.12 38.83 35.12 34.93 39.02 34.93 39.02 33.53 35.12 33.53 35.12 29.63 34.42 29.63 33.73 29.63 33.73 33.53"/></svg>